<?xml version="1.0" encoding="utf-8"?>
<!-- Generator: Adobe Illustrator 23.0.1, SVG Export Plug-In . SVG Version: 6.00 Build 0)  -->
<svg version="1.1" id="Livello_1" xmlns="http://www.w3.org/2000/svg" xmlns:xlink="http://www.w3.org/1999/xlink" x="0px" y="0px"
	 viewBox="0 0 309 86.5" style="enable-background:new 0 0 309 86.5;" xml:space="preserve">
<g id="layer1" transform="translate(374.0215,-139.51205)">
	<path id="path4518" d="M-330.9,141.3l-1.1,0.7c-6.3,3.8-11.4,9.2-14.9,15.6l0,0l0,0c-3.3,6.1-5.1,13-5.1,20v0v0
		c0,3.9,0.6,7.7,1.6,11.4c0,0.1,0.1,0.2,0.1,0.3c0,0.1,0,0.1,0,0.2c2.5,8.5,7.6,15.8,14.4,21.1c0,0,0,0,0,0c0,0,0,0,0,0
		c0.1-0.1,0.2-0.1,0.3-0.2c0.1,0,0.1-0.1,0.2-0.1c0.1-0.1,0.2-0.1,0.3-0.2c0.1,0,0.1-0.1,0.2-0.1c0.1,0,0.2-0.1,0.3-0.1
		c0.1,0,0.2-0.1,0.2-0.1c0.1,0,0.2-0.1,0.3-0.1c0.1,0,0.2-0.1,0.3-0.1c0.1,0,0.2-0.1,0.2-0.1c0.1-0.1,0.2-0.1,0.3-0.2
		c0.1-0.1,0.2-0.1,0.3-0.2c0.1,0,0.2-0.1,0.2-0.1c0.1-0.1,0.2-0.1,0.3-0.2c0.1,0,0.1-0.1,0.2-0.1c0.1-0.1,0.2-0.1,0.3-0.2
		c0.1,0,0.1-0.1,0.2-0.1c0,0,0,0,0,0c0,0,0,0,0,0c-4.5-3.1-8.2-7.2-10.9-11.8c-1.7-3-3.1-6.3-3.9-9.8l0,0c-0.7-2.9-1.1-5.9-1.1-9v0
		c0,0,0,0,0,0c0-6.3,1.6-12.4,4.6-17.9c0,0,0,0,0,0c0,0,0,0,0,0c2.9-5.4,7.2-9.9,12.3-13.2c3.3,2.1,6.1,4.8,8.5,7.7
		c2.4,0.6,4.7,1.4,6.9,2.5c-3.4-5.9-8.3-10.9-14.3-14.6L-330.9,141.3z M-331,154.6c-2.8,0-5.5,0.3-8.1,1c-1.3,1.8-2.5,3.7-3.5,5.6
		c3.6-1.5,7.5-2.3,11.7-2.3c14.6,0,26.7,10.1,29.9,23.7c1.9,1.8,3.6,3.9,5.1,6C-296.5,169.8-312,154.6-331,154.6L-331,154.6z
		 M-349.3,159.8c-10,6.2-16.6,17.2-16.6,29.8c0,9.3,3.6,17.7,9.5,24c2.2,0.3,4.4,0.4,6.7,0.3c-7.2-5.6-11.9-14.4-11.9-24.3
		c0-8.9,3.8-16.9,9.8-22.5l0,0C-351.3,164.6-350.4,162.2-349.3,159.8L-349.3,159.8z M-316.5,164.3c1.2,3.1,1.9,6.3,2.3,9.6
		c0.9,0.4,1.7,0.8,2.6,1.2c0.6,0.3,1.3,0.6,1.9,1c-0.1-2.5-0.4-5-0.9-7.4C-312.5,167-314.4,165.5-316.5,164.3L-316.5,164.3z
		 M-330.7,171.6c-0.2,0-0.5,0-0.7,0c-3.3,0-6.6,0.4-9.8,1.3c-1.7,0.4-3.3,0.9-5,1.6c0,0.2,0,0.4,0,0.6c0,0,0,0.1,0,0.1
		c0,0.2,0,0.3,0,0.5c0,0,0,0.1,0,0.1c0,0.2,0,0.3,0,0.5c0,0,0,0.1,0,0.1c0,0.2,0,0.3,0,0.5c0,0.1,0,0.1,0,0.2c0,0.1,0,0.2,0,0.4
		c0,0.1,0,0.2,0,0.3c0,0.1,0,0.2,0,0.3c0,0.1,0,0.2,0,0.3c0,0.1,0,0.2,0,0.2c0,0.1,0,0.2,0,0.4c0,0.1,0,0.1,0,0.2c0,0,0,0,0,0
		c0,0,0,0,0,0.1c3-1.3,6.1-2.3,9.1-2.8c1.9-0.3,3.7-0.5,5.6-0.5c4.8,0,9.6,0.8,14.1,2.6l0-0.1c7.6,3,14.3,8.5,18.7,16.1
		c2.9,5,4.5,10.6,4.9,16.4c-3.5,1.8-7.2,2.9-11.1,3.5c-1.7,1.8-3.5,3.3-5.5,4.7h0c6.9,0,13.8-1.8,19.9-5.1l1.2-0.6l0-1.3
		c-0.2-6.9-2.1-13.7-5.5-19.8l0,0l0,0C-302.5,179.2-316.4,171.7-330.7,171.6L-330.7,171.6z M-353.6,178.3c-2.3,1.5-4.3,3.1-6.3,5
		c-0.3,1.3-0.5,2.7-0.6,4c-0.1,1.1-0.1,2.1-0.1,3.2c2.1-2.7,4.6-5.1,7.3-7.2C-353.4,181.6-353.6,179.9-353.6,178.3L-353.6,178.3z
		 M-314.3,181.1c-0.5,5.4-2.1,10.6-4.8,15.2c-1.8,3.1-4.1,6-6.8,8.5l0.1,0.1c-2.1,2-4.4,3.8-7,5.2c-10.9,6.3-24.2,6.6-35.4,1
		c0.2-4,1.1-7.9,2.5-11.6c-0.7-2.4-1.1-4.8-1.3-7.2c-3.5,6.1-5.5,13-5.6,20l0,1.3l1.1,0.6c12.7,7,28.2,6.8,40.8-0.4l0,0l0,0
		c6.5-3.8,11.7-9.1,15.3-15.4c2.6-4.5,4.4-9.6,5.2-14.8c0,0-0.1,0-0.1-0.1c0,0,0,0,0,0c0,0,0,0,0,0c-0.1-0.1-0.3-0.2-0.4-0.3
		c0,0,0,0-0.1,0c-0.1-0.1-0.3-0.2-0.4-0.3c0,0-0.1,0-0.1-0.1c-0.1-0.1-0.3-0.2-0.4-0.3c0,0-0.1,0-0.1-0.1c-0.1-0.1-0.3-0.2-0.4-0.3
		c0,0-0.1,0-0.1,0c-0.1-0.1-0.3-0.2-0.4-0.2c0,0-0.1,0-0.1-0.1c-0.1-0.1-0.3-0.2-0.4-0.2c0,0-0.1,0-0.1,0c-0.1-0.1-0.3-0.2-0.4-0.2
		c0,0-0.1,0-0.1,0c-0.1-0.1-0.2-0.1-0.3-0.2c0,0,0,0,0,0C-314.3,181.1-314.3,181.1-314.3,181.1L-314.3,181.1z M-300.6,193.6
		c-2,15.1-14.8,26.7-30.4,26.7c-3.1,0-6.1-0.5-9-1.3c-2.5,0.7-5.1,1.2-7.7,1.4c5,2.7,10.7,4.2,16.7,4.2c15.8,0,29.2-10.6,33.5-25
		C-298.3,197.5-299.3,195.5-300.6,193.6L-300.6,193.6z M-325.5,211.7c-0.8,0.6-1.7,1.2-2.6,1.8c-0.5,0.3-1,0.7-1.5,1
		c2.5,1.3,5.1,2.4,7.9,3.1c0.7-0.2,1.4-0.5,2.1-0.8c1.5-0.6,3-1.4,4.3-2.2C-318.8,214.2-322.3,213.2-325.5,211.7L-325.5,211.7z"/>
</g>
<g>
	<path d="M122.8,22.7v5.2h-12.6v40.6h-6.1V27.8H91.6v-5.2H122.8z"/>
	<path d="M133.6,68.5V36c5-1.7,10.1-2.6,15.2-2.6c1.6,0,3.1,0.1,4.5,0.2c1.4,0.1,3,0.4,4.7,0.8l-1.1,5.4c-1.6-0.4-3-0.7-4.2-0.9
		c-1.2-0.1-2.5-0.2-4-0.2c-3,0-6.1,0.4-9.2,1.3v28.5H133.6z"/>
	<path d="M176.6,39.2h-9.9v-5.1h16v21.1c0,3.4,0.5,5.7,1.4,6.8c0.9,1.2,2.3,1.7,4.2,1.7c1.4,0,2.7-0.2,4-0.5
		c1.2-0.3,2.2-0.7,2.8-1.1l0.9,5.2c-0.3,0.1-0.7,0.3-1.3,0.6c-0.5,0.2-1.2,0.4-1.9,0.6c-0.7,0.2-1.5,0.4-2.4,0.5
		c-0.9,0.1-1.8,0.2-2.7,0.2c-2.2,0-4-0.3-5.4-0.9c-1.4-0.6-2.6-1.5-3.4-2.7c-0.9-1.2-1.5-2.7-1.8-4.4c-0.3-1.8-0.5-3.8-0.5-6.1V39.2
		z M178.2,28.8c-1.3,0-2.4-0.4-3.3-1.3c-0.9-0.9-1.4-2.1-1.4-3.6c0-1.5,0.5-2.7,1.4-3.6c0.9-0.9,2-1.3,3.3-1.3
		c1.3,0,2.5,0.4,3.4,1.3c0.9,0.9,1.4,2.1,1.4,3.6c0,1.5-0.5,2.7-1.4,3.6C180.6,28.4,179.5,28.8,178.2,28.8z"/>
	<path d="M217,64.2c3.1,0,5.5-0.6,7.1-1.8s2.4-3,2.4-5.3c0-1.4-0.3-2.7-0.9-3.7c-0.6-1-1.4-1.9-2.4-2.7c-1-0.8-2.1-1.4-3.3-2
		c-1.2-0.6-2.5-1.1-3.8-1.6c-1.5-0.6-2.9-1.3-4.3-2c-1.4-0.7-2.6-1.6-3.6-2.6c-1.1-1-1.9-2.1-2.5-3.5c-0.6-1.3-0.9-2.9-0.9-4.7
		c0-4,1.3-7.1,3.8-9.4c2.5-2.2,6-3.4,10.5-3.4c1.2,0,2.5,0.1,3.7,0.3c1.2,0.2,2.3,0.4,3.4,0.6c1,0.2,2,0.5,2.8,0.9
		c0.8,0.3,1.5,0.7,2,1l-1.9,5.1c-1-0.6-2.3-1.2-4.1-1.8c-1.7-0.6-3.7-0.9-5.8-0.9c-2.2,0-4.1,0.6-5.8,1.7c-1.6,1.1-2.4,2.8-2.4,5
		c0,1.3,0.2,2.4,0.7,3.3c0.5,0.9,1.1,1.7,1.9,2.3c0.8,0.7,1.8,1.3,2.8,1.8c1.1,0.5,2.3,1.1,3.6,1.6c1.9,0.8,3.6,1.6,5.1,2.4
		c1.6,0.8,2.9,1.7,4,2.8c1.1,1.1,2,2.4,2.6,3.8c0.6,1.5,0.9,3.3,0.9,5.4c0,4-1.3,7.1-4,9.2c-2.7,2.1-6.5,3.2-11.6,3.2
		c-1.6,0-3.2-0.1-4.6-0.3c-1.4-0.2-2.7-0.5-3.8-0.9c-1.1-0.3-2.1-0.7-2.9-1c-0.8-0.3-1.5-0.7-1.9-1l1.8-5c1,0.5,2.4,1.2,4.4,1.9
		C211.9,63.8,214.3,64.2,217,64.2z"/>
	<path d="M255.9,33.3c4.6,0,8.2,1.4,10.7,4.3c2.5,2.9,3.8,7.3,3.8,13.1v2.1h-24.6c0.2,3.6,1.4,6.3,3.5,8.1c2.1,1.9,5,2.8,8.8,2.8
		c2.2,0,4-0.2,5.5-0.5c1.5-0.3,2.7-0.7,3.5-1.1l0.8,5.2c-0.7,0.4-2.1,0.8-4,1.3c-1.9,0.4-4.1,0.7-6.5,0.7c-3,0-5.6-0.5-7.8-1.4
		c-2.2-0.9-4.1-2.2-5.6-3.7c-1.5-1.6-2.6-3.5-3.3-5.7c-0.7-2.2-1.1-4.6-1.1-7.1c0-3.1,0.5-5.7,1.4-8c0.9-2.3,2.2-4.1,3.7-5.6
		c1.5-1.5,3.3-2.6,5.2-3.3C251.9,33.7,253.8,33.3,255.9,33.3z M264.2,48c0-2.9-0.8-5.2-2.3-6.9c-1.5-1.7-3.6-2.6-6.1-2.6
		c-1.4,0-2.7,0.3-3.9,0.8c-1.2,0.5-2.2,1.3-3,2.1c-0.8,0.9-1.5,1.9-2,3c-0.5,1.1-0.8,2.3-1,3.5H264.2z"/>
	<path d="M277.3,51.4c0-3.1,0.5-5.8,1.5-8.1c1-2.3,2.3-4.1,4.1-5.6c1.7-1.5,3.7-2.6,6-3.3c2.3-0.7,4.7-1.1,7.4-1.1
		c1.7,0,3.3,0.1,5,0.3c1.7,0.2,3.4,0.6,5.3,1.2l-1.4,5.3c-1.6-0.6-3.1-1-4.5-1.1c-1.4-0.2-2.7-0.3-4.1-0.3c-1.8,0-3.5,0.2-5,0.7
		c-1.6,0.5-2.9,1.2-4.1,2.2c-1.2,1-2.1,2.3-2.8,3.9c-0.7,1.6-1,3.5-1,5.8c0,2.2,0.3,4,1,5.6c0.6,1.6,1.5,2.8,2.7,3.8
		c1.2,1,2.6,1.8,4.2,2.3c1.6,0.5,3.4,0.7,5.4,0.7c1.6,0,3.1-0.1,4.6-0.3c1.5-0.2,3-0.6,4.8-1.1l0.9,5.1c-1.7,0.6-3.5,1.1-5.3,1.4
		c-1.8,0.3-3.7,0.4-5.8,0.4c-2.8,0-5.3-0.4-7.6-1.1s-4.3-1.9-5.9-3.4c-1.7-1.5-2.9-3.3-3.8-5.6C277.8,56.9,277.3,54.3,277.3,51.4z"
		/>
</g>
<g>
</g>
<g>
</g>
<g>
</g>
<g>
</g>
<g>
</g>
<g>
</g>
</svg>
